<?xml version="1.0" standalone="no"?>
<!DOCTYPE svg PUBLIC "-//W3C//DTD SVG 20010904//EN"
 "http://www.w3.org/TR/2001/REC-SVG-20010904/DTD/svg10.dtd">
<svg version="1.0" xmlns="http://www.w3.org/2000/svg"
 width="1116.000000pt" height="1116.000000pt" viewBox="0 0 1116.000000 1116.000000"
 preserveAspectRatio="xMidYMid meet">
<metadata>
Created by potrace 1.11, written by Peter Selinger 2001-2013
</metadata>
<g transform="translate(0.000000,1116.000000) scale(0.100000,-0.100000)"
fill="#000000" stroke="none">
<path d="M5234 11142 c8 -14 -121 -21 -136 -7 -8 7 -9 6 -3 -4 7 -11 1 -13
-28 -8 -21 3 -37 2 -37 -2 0 -12 -33 -10 -49 3 -11 8 -13 8 -7 -1 5 -9 -1 -13
-21 -14 -15 0 -37 -2 -48 -4 -11 -2 -38 -5 -60 -7 -22 -2 -46 -7 -53 -12 -7
-4 -12 -2 -12 6 0 10 -2 10 -8 1 -4 -6 -20 -10 -35 -9 -15 2 -27 0 -27 -4 0
-4 -6 -7 -12 -7 -33 -2 -95 -11 -108 -16 -8 -3 -37 -9 -65 -13 -27 -4 -54 -8
-60 -10 -5 -1 -21 -5 -35 -8 -14 -3 -43 -10 -64 -15 -22 -5 -42 -9 -45 -9 -3
1 -13 -2 -21 -5 -22 -9 -133 -32 -147 -30 -7 0 -10 -4 -6 -10 4 -6 -4 -8 -21
-5 -14 3 -26 1 -26 -4 0 -6 -6 -8 -14 -5 -7 3 -18 1 -23 -4 -11 -11 -48 -21
-85 -23 -14 0 -24 -4 -22 -7 3 -6 -80 -34 -101 -34 -5 0 -12 -2 -15 -5 -3 -3
-30 -13 -60 -23 -85 -29 -163 -58 -182 -68 -10 -5 -25 -9 -33 -9 -8 0 -15 -6
-15 -12 0 -10 -3 -9 -9 1 -7 10 -9 11 -13 1 -2 -8 -11 -14 -20 -16 -18 -2 -77
-27 -130 -56 -21 -10 -38 -16 -38 -12 0 3 -6 1 -13 -5 -8 -6 -17 -8 -20 -4 -4
3 -7 1 -7 -6 0 -8 -6 -11 -16 -7 -8 3 -13 2 -10 -3 5 -7 -12 -15 -39 -20 -3 0
-48 -23 -100 -51 -52 -27 -95 -46 -95 -42 0 4 -4 2 -8 -4 -8 -13 -94 -59 -104
-56 -5 1 -8 -2 -8 -6 0 -5 -16 -14 -35 -22 -19 -8 -35 -18 -35 -23 0 -5 -9 -7
-20 -4 -10 3 -18 1 -17 -5 1 -5 -17 -20 -40 -32 -23 -13 -40 -26 -36 -29 3 -4
-4 -4 -16 -2 -12 2 -20 1 -17 -3 5 -8 -14 -26 -32 -30 -7 -1 -35 -18 -62 -37
-27 -19 -53 -35 -57 -35 -3 0 -14 -6 -22 -14 -9 -8 -23 -16 -30 -18 -8 -2 -24
-12 -35 -24 -12 -11 -28 -24 -36 -27 -8 -4 -33 -21 -55 -38 -22 -16 -58 -41
-79 -56 -22 -14 -49 -34 -60 -45 -12 -11 -32 -27 -46 -37 -28 -18 -64 -47 -92
-73 -10 -10 -18 -16 -18 -13 0 5 -34 -23 -104 -87 -23 -21 -47 -36 -54 -33 -7
3 -10 0 -7 -5 4 -6 -7 -21 -23 -35 -17 -14 -44 -38 -62 -55 -18 -16 -36 -30
-42 -30 -5 0 -6 -5 -2 -12 5 -8 2 -9 -9 -5 -10 4 -16 2 -14 -6 1 -7 -3 -11
-10 -10 -8 2 -10 -4 -6 -15 3 -9 3 -14 -2 -10 -4 4 -18 -4 -30 -18 -14 -17
-28 -24 -35 -19 -8 5 -11 4 -6 -3 4 -6 -26 -44 -69 -88 -41 -42 -75 -80 -75
-85 0 -5 -6 -9 -12 -9 -7 0 -24 -16 -37 -35 -13 -19 -30 -35 -38 -35 -8 0 -12
-4 -9 -9 7 -11 -38 -53 -48 -44 -4 4 -4 0 -1 -8 3 -9 -2 -22 -11 -30 -15 -12
-17 -12 -9 0 5 9 4 12 -3 7 -6 -4 -8 -14 -5 -23 4 -10 2 -14 -5 -9 -6 3 -13
-2 -16 -12 -8 -25 -62 -73 -72 -64 -4 4 -4 1 0 -6 5 -8 0 -21 -13 -33 -12 -11
-21 -23 -21 -27 0 -4 -12 -21 -27 -39 -16 -17 -37 -43 -48 -59 -11 -15 -30
-40 -43 -55 -12 -15 -22 -32 -22 -38 0 -6 -4 -11 -8 -11 -8 0 -61 -73 -89
-122 -6 -11 -15 -23 -20 -27 -9 -5 -20 -23 -90 -139 -12 -21 -26 -36 -32 -35
-6 2 -8 -3 -5 -11 3 -7 -1 -20 -8 -27 -8 -8 -25 -34 -39 -59 -13 -25 -27 -47
-30 -50 -3 -3 -12 -18 -21 -35 -8 -16 -30 -57 -48 -90 -18 -33 -44 -82 -58
-110 -13 -27 -28 -52 -33 -53 -5 -2 -7 -8 -3 -13 3 -5 0 -9 -5 -9 -6 0 -10 -3
-9 -7 3 -16 -22 -64 -31 -59 -5 4 -7 -4 -3 -16 4 -16 2 -19 -8 -13 -8 5 -11 4
-7 -3 10 -15 -3 -43 -16 -35 -6 3 -7 1 -3 -6 4 -7 -4 -35 -17 -64 -34 -70 -70
-149 -72 -163 -8 -37 -18 -53 -27 -48 -6 4 -8 3 -5 -3 4 -6 -2 -34 -13 -64
-11 -29 -20 -55 -20 -57 0 -2 -4 -1 -9 2 -5 4 -7 -3 -4 -14 3 -11 -1 -27 -8
-36 -14 -17 -15 -20 -17 -62 -1 -14 -6 -20 -13 -17 -6 4 -9 1 -8 -6 4 -23 -23
-109 -33 -109 -6 0 -8 -7 -4 -15 3 -8 1 -15 -4 -15 -5 0 -7 -6 -4 -14 3 -8 1
-17 -5 -20 -6 -4 -8 -13 -4 -21 3 -8 -1 -15 -8 -15 -7 0 -9 -3 -6 -7 4 -3 1
-13 -6 -21 -10 -13 -9 -14 3 -7 12 7 13 6 3 -7 -7 -8 -10 -18 -6 -21 3 -4 1
-7 -6 -7 -7 0 -9 -4 -6 -10 3 -5 3 -16 -2 -22 -4 -7 -8 -21 -9 -30 -3 -31 -4
-33 -14 -18 -8 11 -9 8 -4 -12 7 -33 -4 -71 -18 -62 -7 5 -8 2 -3 -5 8 -14
-14 -133 -24 -127 -3 2 -6 -10 -7 -27 -1 -45 -14 -110 -25 -123 -5 -6 -6 -13
-3 -17 3 -3 0 -32 -7 -64 -7 -32 -14 -69 -15 -83 -1 -14 -2 -31 -3 -38 -1 -7
-4 -11 -8 -9 -5 3 -8 -14 -9 -36 -2 -71 -8 -127 -13 -127 -4 0 -6 -17 -7 -38
-2 -96 -15 -177 -32 -191 -16 -13 -16 -13 0 -8 18 6 18 1 3 -148 -7 -63 -7
-60 -6 -120 0 -27 1 -61 1 -74 0 -14 -6 -28 -12 -33 -10 -6 -10 -8 0 -8 6 0
12 -9 12 -21 0 -13 -4 -18 -12 -13 -7 5 -8 3 -3 -6 5 -8 10 -86 11 -174 2
-176 13 -356 22 -370 3 -5 -3 -6 -14 -3 -18 7 -18 7 0 -7 13 -11 17 -24 14
-50 -2 -20 -1 -36 3 -36 3 0 7 -15 7 -32 0 -18 1 -35 2 -38 1 -3 3 -21 4 -41
2 -20 7 -42 11 -49 6 -9 4 -11 -6 -5 -12 7 -12 6 -1 -7 7 -8 13 -41 15 -72 1
-31 6 -56 11 -56 5 0 2 -8 -5 -17 -8 -9 -9 -14 -3 -10 13 8 40 -132 30 -158
-4 -10 -2 -14 6 -9 7 5 9 0 6 -14 -4 -12 -2 -22 2 -22 5 0 7 -11 5 -25 -1 -14
2 -28 7 -31 5 -3 7 -12 4 -20 -3 -8 -2 -14 3 -14 5 0 11 -15 14 -32 3 -18 8
-46 12 -63 4 -16 8 -41 9 -55 0 -14 4 -27 8 -30 4 -3 8 -17 10 -30 2 -14 6
-29 9 -35 4 -5 9 -23 13 -38 5 -22 4 -27 -6 -22 -7 4 -5 0 5 -9 12 -9 19 -29
20 -54 1 -22 5 -38 8 -36 6 3 33 -77 34 -98 0 -3 3 -10 7 -14 5 -4 8 -17 8
-29 0 -11 4 -25 9 -31 5 -5 11 -20 13 -34 1 -14 6 -28 10 -31 5 -3 9 -17 10
-32 1 -15 5 -27 9 -27 4 0 13 -22 20 -50 7 -27 16 -50 21 -50 4 0 8 -9 8 -20
0 -11 6 -20 13 -20 8 0 7 -4 -3 -10 -8 -5 -10 -10 -4 -10 7 0 14 -9 17 -20 3
-11 6 -24 7 -28 1 -4 11 -24 21 -44 11 -21 16 -38 12 -38 -5 0 -3 -4 4 -8 6
-4 13 -16 15 -27 1 -11 10 -25 18 -32 13 -11 12 -12 -5 -13 -18 -1 -18 -2 3
-10 19 -8 27 -26 23 -52 0 -5 3 -8 8 -8 5 0 15 -16 22 -35 7 -19 17 -35 22
-35 4 0 5 -5 1 -11 -3 -6 -3 -14 2 -18 11 -7 38 -63 36 -73 -1 -5 2 -8 7 -8 9
0 28 -44 20 -46 -2 0 4 -8 14 -18 9 -10 15 -22 12 -27 -4 -5 -1 -9 6 -9 7 0 9
-3 6 -7 -4 -3 1 -11 10 -18 9 -7 16 -26 16 -44 0 -20 3 -27 9 -19 6 11 8 11 8
0 0 -8 5 -10 12 -6 7 4 10 4 6 0 -4 -5 4 -26 18 -47 14 -22 22 -44 19 -49 -4
-6 -1 -10 5 -10 7 0 10 -7 6 -15 -3 -8 0 -14 6 -12 5 1 19 -13 30 -32 15 -27
16 -36 6 -50 -10 -13 -10 -14 1 -4 11 9 17 9 28 -3 8 -7 12 -18 8 -23 -3 -6 4
-15 15 -21 11 -6 20 -16 20 -23 0 -7 8 -22 18 -33 10 -10 30 -39 45 -64 41
-66 77 -115 88 -118 6 -3 5 -10 -2 -19 -10 -11 -10 -13 1 -11 7 2 19 -7 25
-19 7 -13 15 -20 18 -16 4 3 7 -1 7 -10 0 -10 14 -31 30 -49 30 -31 41 -56 18
-42 -7 4 -8 3 -4 -4 4 -6 13 -9 21 -5 9 3 15 -1 15 -11 0 -9 5 -16 11 -16 5 0
7 -4 4 -10 -3 -6 1 -10 9 -10 9 0 16 -4 16 -8 0 -8 11 -23 50 -69 5 -7 10 -17
10 -23 0 -6 4 -9 9 -6 12 8 22 -20 15 -42 -5 -13 -4 -14 4 -3 11 16 32 7 32
-15 0 -8 6 -14 14 -14 14 0 32 -36 28 -53 -1 -5 2 -6 7 -3 13 8 43 -23 35 -36
-4 -6 -3 -8 3 -5 12 8 46 -31 38 -44 -4 -5 -3 -9 2 -8 20 4 33 -2 33 -15 0 -8
7 -17 16 -20 8 -3 12 -11 9 -16 -4 -6 -2 -9 3 -8 11 4 182 -168 182 -182 0 -6
3 -9 8 -8 16 6 91 -74 85 -90 -4 -13 -3 -14 5 -4 7 11 15 8 36 -13 14 -14 23
-31 20 -37 -4 -7 -2 -8 5 -4 13 9 43 -12 36 -24 -3 -5 3 -7 12 -6 18 3 50 -31
45 -47 -1 -5 2 -6 6 -3 12 7 63 -40 54 -50 -4 -4 -2 -4 4 -1 6 4 23 -3 37 -16
34 -30 88 -71 98 -75 5 -2 27 -22 49 -43 22 -22 40 -37 40 -33 0 4 8 -3 19
-14 10 -12 21 -19 25 -15 3 3 6 -2 6 -12 0 -10 3 -15 6 -12 11 11 44 -13 38
-27 -3 -8 -1 -17 5 -21 7 -3 8 0 5 9 -3 9 -1 16 5 16 6 0 11 -4 11 -10 0 -5 7
-10 15 -10 8 0 15 -4 15 -8 0 -5 12 -14 26 -20 16 -8 22 -17 18 -25 -4 -6 -4
-9 1 -5 11 11 47 -11 39 -24 -4 -6 -3 -8 3 -5 14 9 75 -22 67 -34 -3 -5 -2 -9
3 -8 14 2 53 -13 53 -21 0 -5 13 -13 30 -19 17 -5 30 -15 30 -20 0 -6 6 -11
14 -11 8 0 24 -9 37 -21 13 -11 18 -17 10 -13 -9 4 -12 3 -7 -4 4 -6 13 -9 21
-6 19 8 57 -14 49 -28 -4 -6 -3 -8 4 -4 6 3 28 -3 49 -15 21 -12 56 -32 78
-44 22 -12 39 -27 37 -34 -1 -7 2 -9 9 -6 12 8 89 -25 89 -38 0 -5 4 -6 9 -2
5 3 12 1 16 -5 4 -6 11 -7 17 -4 8 5 9 1 5 -10 -4 -10 -3 -15 3 -11 5 3 38 -8
73 -25 35 -16 69 -30 75 -30 7 0 12 -4 12 -10 0 -5 9 -10 20 -10 10 0 24 -8
29 -17 6 -11 11 -13 11 -5 0 7 5 10 10 7 6 -4 8 -10 5 -15 -3 -4 3 -7 12 -6
27 4 63 -15 63 -33 0 -14 2 -14 10 -1 6 10 10 11 10 2 0 -6 3 -11 8 -10 17 4
72 -14 67 -23 -4 -5 1 -6 10 -3 8 4 21 2 28 -4 6 -5 29 -15 51 -22 28 -9 35
-15 25 -21 -9 -6 -10 -9 -2 -9 6 0 15 5 19 11 3 6 9 7 13 2 3 -5 40 -20 81
-33 41 -14 77 -28 78 -33 2 -4 8 -5 13 -1 5 3 9 1 9 -5 0 -6 7 -8 15 -5 8 4
15 2 15 -3 0 -5 8 -9 18 -10 9 -1 24 -3 32 -6 8 -2 30 -8 48 -12 17 -4 32 -13
32 -19 0 -6 5 -4 10 4 6 10 10 11 10 2 0 -6 3 -11 8 -11 22 4 42 -2 37 -11 -3
-5 5 -9 17 -8 49 2 69 -2 62 -13 -4 -7 0 -9 14 -5 11 4 23 2 26 -3 4 -6 13 -8
21 -4 8 3 15 1 15 -5 0 -6 10 -8 22 -4 14 3 19 1 14 -6 -5 -8 -2 -10 8 -6 9 3
24 3 33 -1 10 -4 36 -10 58 -12 22 -2 42 -8 45 -11 6 -8 16 -10 64 -14 20 -1
36 -6 36 -10 0 -5 6 -8 13 -7 32 4 78 -2 73 -10 -3 -5 2 -15 12 -22 15 -13 16
-12 4 3 -8 10 -9 19 -3 22 5 4 12 3 15 -2 2 -4 24 -9 47 -11 23 -1 47 -5 53
-9 6 -4 20 -7 31 -7 11 -1 57 -5 103 -9 65 -7 82 -12 83 -25 0 -10 2 -11 6 -3
6 15 63 16 63 0 0 -9 3 -9 11 -1 7 7 22 8 38 4 14 -5 32 -6 40 -3 7 2 17 -2
22 -9 6 -10 9 -10 9 -2 0 7 6 10 13 8 10 -4 63 -8 212 -18 17 -1 36 -6 44 -11
9 -6 12 -5 7 2 -4 7 14 9 56 7 35 -2 63 -4 63 -5 0 -6 36 -7 40 0 3 4 21 4 40
0 20 -5 33 -4 29 1 -8 14 20 11 35 -4 8 -6 11 -7 8 -2 -8 15 84 17 102 2 12
-10 13 -9 7 1 -6 11 1 13 32 11 23 -2 44 0 48 4 4 4 16 -1 26 -10 14 -13 17
-13 13 -2 -4 11 3 14 30 15 19 0 35 -4 35 -10 0 -8 3 -7 8 0 8 13 72 24 72 13
0 -5 10 -5 23 0 12 4 30 7 40 6 9 -2 17 1 17 7 0 7 5 6 14 -1 8 -7 17 -8 19
-4 9 14 70 15 79 1 5 -9 8 -8 8 6 0 16 2 17 17 5 11 -10 14 -10 9 -1 -5 9 2
12 28 12 19 0 42 3 52 7 13 5 15 3 9 -8 -7 -12 -6 -12 7 -1 9 7 36 15 60 17
24 1 51 6 61 10 20 8 50 -12 40 -28 -3 -6 -1 -7 6 -3 9 6 9 11 0 22 -17 20 -3
30 18 13 11 -9 14 -10 9 -2 -4 9 -1 14 11 15 24 2 47 5 53 8 3 1 15 3 28 6 17
3 21 0 16 -8 -4 -7 2 -5 13 5 11 9 23 14 26 10 4 -3 7 -1 7 5 0 6 6 9 14 6 8
-3 37 1 65 10 28 8 51 12 51 9 0 -3 8 1 17 8 15 12 16 12 9 -5 -7 -19 -6 -19
12 -2 19 16 54 27 97 30 11 0 22 4 25 8 3 4 21 10 40 13 19 3 41 11 49 18 12
10 13 9 6 -3 -8 -13 -6 -13 8 -2 9 8 21 11 27 7 5 -3 10 -1 10 5 0 7 6 10 14
7 8 -3 16 -2 18 3 2 6 15 11 31 12 15 1 27 7 27 12 0 5 7 1 16 -10 8 -10 13
-14 10 -8 -8 17 10 28 89 53 39 12 77 25 85 28 11 5 13 3 5 -8 -5 -8 -2 -7 7
3 9 10 30 20 46 21 17 1 28 5 26 8 -2 4 3 9 11 13 8 3 15 0 15 -6 0 -7 5 -5
13 4 6 8 32 23 56 32 37 15 43 15 38 2 -4 -9 -2 -18 4 -21 5 -4 9 -3 8 2 -5
28 2 45 16 39 9 -3 18 1 21 9 4 8 10 12 15 9 5 -3 6 -10 3 -16 -4 -7 -2 -8 5
-4 6 4 9 11 6 16 -9 15 35 22 53 8 15 -12 16 -11 3 4 -12 16 -10 19 10 27 14
5 29 5 35 -1 8 -6 11 -3 10 9 0 10 4 18 9 19 13 1 65 21 85 32 8 5 23 8 32 6
10 -1 16 2 15 7 -1 5 20 20 48 33 36 18 53 22 63 14 9 -8 11 -7 6 5 -4 12 5
21 33 34 21 10 40 21 43 24 3 3 13 5 23 3 9 -1 15 2 11 7 -5 8 9 13 29 10 4
-1 10 6 13 14 3 8 10 12 15 9 5 -3 9 0 9 5 0 6 6 11 14 11 8 0 22 7 30 16 9 8
21 12 27 8 8 -4 9 -3 5 4 -6 11 6 16 27 13 4 0 7 3 7 9 0 5 6 10 13 10 7 0 22
8 33 18 27 23 84 55 84 46 0 -4 6 0 13 11 9 12 19 15 28 10 8 -5 11 -5 7 0 -8
8 30 41 82 69 19 11 37 22 40 26 13 17 68 49 74 43 3 -3 6 -1 6 5 0 12 89 75
107 75 7 0 10 4 7 9 -3 4 3 11 12 15 19 7 32 17 92 70 26 22 40 29 49 22 8 -8
10 -5 6 10 -4 14 -1 21 9 21 8 0 28 13 44 30 30 30 51 40 38 18 -4 -8 -3 -10
2 -5 5 5 9 12 9 17 0 14 55 59 68 56 6 -1 9 -1 4 2 -10 5 105 111 122 112 8 0
12 3 9 6 -3 3 17 26 45 52 27 26 69 66 93 89 23 23 45 39 48 36 3 -3 9 3 12
13 4 10 27 38 51 61 23 24 43 45 43 48 0 3 12 17 27 30 20 16 30 20 36 12 5
-7 5 -1 2 12 -6 19 -4 23 8 18 12 -4 14 -2 10 10 -4 9 -2 14 3 11 5 -3 15 0
22 8 7 8 10 14 6 14 -3 0 -1 7 6 15 7 9 20 13 29 10 12 -5 13 -3 4 6 -9 9 -4
20 23 47 19 19 34 39 34 44 0 5 5 6 10 3 6 -3 10 0 10 8 0 18 39 59 50 52 6
-3 7 0 4 8 -3 8 0 18 7 23 7 4 10 3 6 -3 -4 -6 1 -17 10 -24 15 -12 16 -12 8
1 -5 8 -10 21 -11 28 -3 18 27 52 39 45 6 -3 7 -2 4 4 -6 10 10 37 62 101 32
39 61 58 45 30 -4 -8 -2 -8 7 1 11 10 11 15 1 18 -12 5 11 46 45 81 7 7 13 18
13 24 0 6 10 8 23 5 20 -6 20 -5 4 7 -14 11 -15 15 -4 25 8 6 17 7 22 3 4 -4
6 0 3 8 -5 17 17 44 30 36 5 -3 9 1 9 9 0 8 -5 11 -11 7 -6 -3 -2 7 8 23 63
97 84 124 91 117 5 -4 5 -1 1 5 -9 15 37 86 49 75 5 -4 5 -1 1 5 -12 21 4 36
21 21 14 -12 15 -11 3 7 -11 18 -7 29 28 87 22 36 38 69 35 72 -4 3 -1 6 5 6
7 0 19 18 28 40 9 22 20 40 25 40 5 0 8 3 7 8 -2 13 32 82 42 82 6 0 9 3 9 8
-4 22 2 42 11 37 6 -3 7 1 4 9 -3 9 -1 16 5 16 6 0 10 6 9 13 -2 6 2 11 7 10
6 -1 11 9 11 21 3 39 48 126 63 121 10 -4 11 -2 3 7 -7 9 -5 25 8 53 10 22 21
49 24 60 6 16 9 17 17 5 8 -11 9 -9 4 8 -4 13 -2 28 3 35 6 7 10 16 10 20 0
22 39 110 50 115 10 3 11 7 2 12 -8 5 -7 12 5 24 9 9 14 16 12 16 -11 0 16 75
32 88 9 7 10 10 2 6 -11 -6 -13 -3 -6 12 4 10 9 28 10 39 1 12 9 19 19 19 10
-1 15 1 12 4 -3 3 0 12 7 21 11 14 10 14 -5 2 -20 -15 -22 -12 -9 21 24 60 28
72 30 94 1 9 6 12 14 8 9 -5 9 -4 0 6 -14 15 1 55 17 45 5 -3 12 -1 15 5 4 6
1 9 -7 8 -7 -2 -11 4 -9 12 2 8 4 21 4 28 0 6 4 12 9 12 5 0 7 4 3 9 -7 12 17
101 25 96 4 -3 5 7 2 20 -2 14 0 25 5 25 5 0 9 10 8 23 -3 31 5 49 20 44 6 -3
12 1 12 8 0 7 -6 11 -14 8 -19 -7 -16 7 5 24 9 8 11 12 5 8 -14 -7 -18 17 -6
29 7 6 8 12 17 71 3 17 8 41 11 55 3 14 7 39 9 55 9 68 19 111 30 124 9 12 8
13 -3 6 -10 -6 -12 -4 -5 6 4 8 10 36 12 64 2 27 9 53 15 57 7 5 8 8 1 8 -13
0 5 132 20 142 7 5 5 8 -4 8 -13 0 -13 1 0 10 11 7 11 10 2 10 -8 0 -10 5 -6
12 4 6 9 46 11 87 3 89 8 125 19 142 5 8 3 9 -6 4 -9 -5 -11 -4 -6 4 4 6 7 46
7 88 0 46 5 83 12 92 8 10 8 13 0 8 -12 -8 -13 59 0 79 3 6 4 14 0 17 -3 4 -7
55 -9 114 -5 195 -14 387 -19 416 -4 22 -2 27 7 21 10 -6 9 -3 -1 9 -7 9 -10
17 -6 17 4 0 2 7 -5 15 -10 12 -10 15 1 15 9 0 10 3 4 8 -6 4 -12 23 -14 42
-1 19 -5 49 -7 65 -3 17 -7 48 -9 70 -3 22 -7 56 -9 75 -3 19 -8 44 -12 54 -5
14 -4 17 4 12 7 -4 12 -3 12 3 0 5 -5 11 -12 13 -7 3 -13 20 -14 39 -1 19 -3
34 -4 34 -2 0 -10 39 -14 70 -1 11 -5 27 -9 35 -5 13 -21 93 -31 155 -2 11 -6
27 -9 35 -3 8 -8 29 -11 45 -2 17 -14 61 -25 100 -11 38 -18 72 -15 76 2 4 0
9 -6 11 -5 1 -11 20 -12 40 -2 21 -5 38 -8 38 -11 0 -32 89 -24 101 4 7 3 9
-3 6 -11 -7 -48 91 -39 101 3 3 -2 11 -12 18 -14 11 -14 13 -2 14 13 0 13 1 0
10 -13 8 -13 12 -1 32 13 21 13 22 -2 9 -10 -7 -17 -12 -18 -10 0 2 -2 12 -4
23 -2 10 -13 41 -25 68 -12 28 -22 59 -23 69 -1 10 -4 19 -8 19 -14 0 -19 33
-8 46 9 11 9 13 -2 9 -10 -4 -21 9 -34 42 -11 26 -19 51 -18 55 2 5 -2 8 -7 8
-5 0 -9 3 -8 8 1 4 -6 22 -16 41 -10 18 -16 41 -13 51 3 13 0 17 -9 13 -10 -4
-14 3 -14 22 0 17 -4 24 -12 19 -8 -5 -9 -2 -5 9 3 10 2 17 -4 17 -6 0 -7 5
-4 10 3 6 2 10 -2 10 -8 0 -28 43 -30 64 -1 5 -7 12 -13 16 -7 4 -13 19 -13
33 -1 14 -6 25 -12 24 -5 -1 -9 4 -8 11 2 6 -2 12 -7 12 -6 0 -10 6 -10 14 0
8 -3 16 -7 18 -10 4 -59 101 -55 106 2 3 0 8 -5 11 -13 10 -53 69 -53 79 0 5
-10 22 -22 38 -21 26 -21 27 -3 21 13 -5 10 0 -9 16 -19 16 -26 28 -21 37 5 8
4 11 -2 7 -14 -9 -46 40 -37 55 4 6 3 8 -4 4 -6 -3 -13 3 -17 14 -3 11 -11 20
-16 20 -5 0 -9 7 -9 15 0 8 -5 15 -11 15 -6 0 -9 9 -6 20 3 11 1 18 -3 15 -12
-7 -48 47 -42 64 2 8 1 12 -4 9 -5 -3 -17 3 -26 14 -10 10 -16 18 -12 18 7 0
-48 73 -63 83 -7 4 -13 14 -13 21 0 7 -9 22 -19 33 -11 12 -17 24 -14 27 4 3
2 6 -4 6 -6 0 -29 24 -51 53 -22 30 -47 61 -56 70 -9 8 -16 18 -16 22 0 7 -19
30 -42 53 -10 9 -18 22 -18 30 0 7 -4 11 -9 7 -12 -7 -33 29 -23 40 4 5 2 5
-4 2 -6 -4 -26 12 -45 35 -19 22 -40 47 -47 55 -8 7 -15 21 -16 31 -2 9 -8 18
-14 18 -7 1 -17 2 -23 3 -6 0 -8 11 -5 24 3 12 3 16 0 8 -4 -9 -36 17 -98 80
-51 52 -135 134 -187 184 -52 49 -93 93 -91 98 1 5 -2 6 -7 3 -5 -3 -25 9 -44
28 -20 19 -38 32 -41 28 -3 -3 -6 2 -6 11 0 10 -5 17 -11 17 -6 0 -16 6 -23
13 -56 53 -192 157 -199 151 -3 -3 -8 4 -12 15 -3 12 -11 21 -17 21 -6 0 -19
9 -29 21 -9 11 -21 20 -26 21 -4 0 -7 5 -5 11 2 7 0 9 -4 5 -8 -8 -64 22 -64
34 0 4 -6 8 -14 8 -8 0 -16 4 -18 9 -1 4 -22 20 -46 35 -23 15 -40 31 -37 36
3 5 0 7 -7 5 -17 -7 -80 39 -70 50 4 5 2 5 -5 2 -12 -7 -73 23 -73 36 0 4 -7
7 -15 7 -8 0 -15 5 -15 10 0 6 -9 10 -21 10 -12 0 -19 5 -16 13 2 6 10 11 16
9 7 -1 10 2 6 8 -5 8 -11 8 -21 -1 -10 -8 -22 -6 -51 12 -21 13 -39 27 -41 31
-2 4 -9 8 -16 8 -22 0 -66 25 -66 37 0 7 -6 10 -13 7 -7 -2 -23 5 -35 16 -12
11 -24 20 -27 20 -31 -1 -37 1 -31 16 3 9 2 12 -5 9 -13 -9 -69 14 -69 28 0 6
-3 7 -6 4 -10 -9 -46 12 -39 23 3 6 0 7 -8 5 -7 -3 -44 10 -83 29 -38 20 -77
36 -86 36 -10 0 -18 5 -18 11 0 5 5 7 12 3 7 -4 8 -3 4 4 -4 6 -13 9 -21 6 -8
-3 -27 1 -42 9 -36 20 -108 51 -155 68 -21 7 -38 16 -38 19 0 3 -10 6 -22 7
-11 1 -24 6 -27 10 -3 4 -17 9 -31 11 -14 1 -31 10 -37 19 -8 10 -13 12 -13 5
0 -9 -8 -8 -30 3 -16 8 -36 15 -45 15 -10 0 -13 5 -9 13 5 8 2 8 -9 -2 -10 -8
-17 -9 -17 -3 0 6 -15 13 -32 17 -18 3 -42 10 -53 15 -27 11 -58 23 -70 25
-60 14 -95 27 -90 35 3 4 -4 6 -15 3 -11 -3 -28 -2 -37 2 -10 5 -22 7 -27 6
-4 -1 -15 6 -23 16 -8 10 -11 12 -7 4 5 -11 3 -13 -10 -8 -27 11 -131 37 -162
41 -16 2 -36 6 -44 9 -26 9 -75 20 -82 19 -5 -1 -8 1 -8 6 0 4 -12 8 -27 8
-42 2 -116 15 -127 21 -5 3 -30 8 -55 10 -25 2 -52 9 -60 16 -12 10 -13 9 -6
-2 6 -10 4 -12 -4 -6 -7 4 -34 9 -59 11 -42 4 -78 9 -92 14 -3 1 -16 1 -29 0
-16 -1 -21 2 -16 11 6 8 4 10 -6 3 -17 -10 -59 -6 -76 7 -7 7 -14 6 -18 -1 -3
-6 -12 -7 -18 -3 -11 7 -48 9 -175 12 -30 1 -41 5 -36 13 5 7 3 8 -6 3 -7 -4
-51 -6 -99 -5 -85 3 -419 2 -517 -1 -28 -1 -57 2 -64 6 -8 5 -11 4 -6 -3z"/>
<path d="M4636 11122 c-3 -5 1 -9 9 -9 8 0 12 4 9 9 -3 4 -7 8 -9 8 -2 0 -6
-4 -9 -8z"/>
<path d="M7553 10885 c0 -8 4 -12 9 -9 5 3 6 10 3 15 -9 13 -12 11 -12 -6z"/>
<path d="M8140 10566 c0 -2 8 -10 18 -17 15 -13 16 -12 3 4 -13 16 -21 21 -21
13z"/>
<path d="M8415 10401 c-3 -5 -2 -12 3 -15 5 -3 9 1 9 9 0 17 -3 19 -12 6z"/>
<path d="M8875 10121 c-3 -5 -2 -12 3 -15 5 -3 9 1 9 9 0 17 -3 19 -12 6z"/>
<path d="M2196 10033 c-6 -14 -5 -15 5 -6 7 7 10 15 7 18 -3 3 -9 -2 -12 -12z"/>
<path d="M9415 9671 c-3 -5 -2 -12 3 -15 5 -3 9 1 9 9 0 17 -3 19 -12 6z"/>
<path d="M1650 9641 c0 -6 4 -13 10 -16 6 -3 7 1 4 9 -7 18 -14 21 -14 7z"/>
<path d="M9755 9321 c-3 -5 -2 -12 3 -15 5 -3 9 1 9 9 0 17 -3 19 -12 6z"/>
<path d="M9775 9259 c-4 -6 -5 -12 -2 -15 2 -3 7 2 10 11 7 17 1 20 -8 4z"/>
<path d="M9974 9056 c1 -8 5 -18 8 -22 4 -3 5 1 4 10 -1 8 -5 18 -8 22 -4 3
-5 -1 -4 -10z"/>
<path d="M10015 8980 c-3 -5 -1 -10 4 -10 6 0 11 5 11 10 0 6 -2 10 -4 10 -3
0 -8 -4 -11 -10z"/>
<path d="M10070 8960 c0 -5 5 -10 11 -10 5 0 7 5 4 10 -3 6 -8 10 -11 10 -2 0
-4 -4 -4 -10z"/>
<path d="M10149 8843 c-13 -16 -12 -17 4 -4 9 7 17 15 17 17 0 8 -8 3 -21 -13z"/>
<path d="M10173 8775 c0 -8 4 -12 9 -9 5 3 6 10 3 15 -9 13 -12 11 -12 -6z"/>
<path d="M10255 8660 c-3 -5 -1 -10 4 -10 6 0 11 5 11 10 0 6 -2 10 -4 10 -3
0 -8 -4 -11 -10z"/>
<path d="M10330 8539 c0 -5 5 -7 10 -4 6 3 10 8 10 11 0 2 -4 4 -10 4 -5 0
-10 -5 -10 -11z"/>
<path d="M10370 8479 c0 -5 5 -7 10 -4 6 3 10 8 10 11 0 2 -4 4 -10 4 -5 0
-10 -5 -10 -11z"/>
<path d="M10500 8220 c8 -5 20 -10 25 -10 6 0 3 5 -5 10 -8 5 -19 10 -25 10
-5 0 -3 -5 5 -10z"/>
<path d="M10570 8119 c0 -5 5 -7 10 -4 6 3 10 8 10 11 0 2 -4 4 -10 4 -5 0
-10 -5 -10 -11z"/>
<path d="M10650 7939 c0 -5 5 -7 10 -4 6 3 10 8 10 11 0 2 -4 4 -10 4 -5 0
-10 -5 -10 -11z"/>
<path d="M10675 7900 c-3 -5 -1 -10 4 -10 6 0 11 5 11 10 0 6 -2 10 -4 10 -3
0 -8 -4 -11 -10z"/>
<path d="M10755 7781 c-3 -5 -2 -12 3 -15 5 -3 9 1 9 9 0 17 -3 19 -12 6z"/>
<path d="M10794 7760 c0 -13 4 -16 10 -10 7 7 7 13 0 20 -6 6 -10 3 -10 -10z"/>
<path d="M10710 7759 c0 -5 5 -7 10 -4 6 3 10 8 10 11 0 2 -4 4 -10 4 -5 0
-10 -5 -10 -11z"/>
<path d="M10726 7742 c-3 -5 1 -9 9 -9 8 0 12 4 9 9 -3 4 -7 8 -9 8 -2 0 -6
-4 -9 -8z"/>
<path d="M10873 7585 c0 -8 4 -12 9 -9 5 3 6 10 3 15 -9 13 -12 11 -12 -6z"/>
<path d="M10890 7446 c0 -2 7 -7 16 -10 8 -3 12 -2 9 4 -6 10 -25 14 -25 6z"/>
<path d="M10879 7353 c-13 -16 -12 -17 4 -4 9 7 17 15 17 17 0 8 -8 3 -21 -13z"/>
<path d="M10993 7235 c0 -8 4 -12 9 -9 5 3 6 10 3 15 -9 13 -12 11 -12 -6z"/>
<path d="M10975 7129 c-4 -6 -5 -12 -2 -15 2 -3 7 2 10 11 7 17 1 20 -8 4z"/>
<path d="M11009 7003 c-13 -16 -12 -17 4 -4 9 7 17 15 17 17 0 8 -8 3 -21 -13z"/>
<path d="M11055 6860 c-3 -5 -1 -10 4 -10 6 0 11 5 11 10 0 6 -2 10 -4 10 -3
0 -8 -4 -11 -10z"/>
<path d="M11033 6745 c0 -8 4 -12 9 -9 5 3 6 10 3 15 -9 13 -12 11 -12 -6z"/>
<path d="M11094 6738 c-4 -7 -4 -10 1 -6 4 4 15 2 24 -5 14 -11 14 -10 2 6
-16 20 -18 21 -27 5z"/>
<path d="M11090 6660 c0 -5 5 -10 11 -10 5 0 7 5 4 10 -3 6 -8 10 -11 10 -2 0
-4 -4 -4 -10z"/>
<path d="M11109 6563 c-13 -16 -12 -17 4 -4 9 7 17 15 17 17 0 8 -8 3 -21 -13z"/>
<path d="M11126 6378 c3 -5 10 -6 15 -3 13 9 11 12 -6 12 -8 0 -12 -4 -9 -9z"/>
<path d="M11130 6339 c0 -5 5 -7 10 -4 6 3 10 8 10 11 0 2 -4 4 -10 4 -5 0
-10 -5 -10 -11z"/>
<path d="M11114 6302 c4 -3 14 -7 22 -8 9 -1 13 0 10 4 -4 3 -14 7 -22 8 -9 1
-13 0 -10 -4z"/>
<path d="M11124 4922 c4 -3 14 -7 22 -8 9 -1 13 0 10 4 -4 3 -14 7 -22 8 -9 1
-13 0 -10 -4z"/>
<path d="M56 4662 c-3 -5 1 -9 9 -9 8 0 12 4 9 9 -3 4 -7 8 -9 8 -2 0 -6 -4
-9 -8z"/>
<path d="M11130 4620 c0 -5 5 -10 11 -10 5 0 7 5 4 10 -3 6 -8 10 -11 10 -2 0
-4 -4 -4 -10z"/>
<path d="M11073 4595 c0 -8 4 -12 9 -9 5 3 6 10 3 15 -9 13 -12 11 -12 -6z"/>
<path d="M11113 4575 c0 -8 4 -12 9 -9 5 3 6 10 3 15 -9 13 -12 11 -12 -6z"/>
<path d="M11070 4566 c0 -2 7 -7 16 -10 8 -3 12 -2 9 4 -6 10 -25 14 -25 6z"/>
<path d="M11135 4541 c-3 -5 -2 -12 3 -15 5 -3 9 1 9 9 0 17 -3 19 -12 6z"/>
<path d="M11095 4381 c-3 -5 -2 -12 3 -15 5 -3 9 1 9 9 0 17 -3 19 -12 6z"/>
<path d="M11074 4336 c1 -8 5 -18 8 -22 4 -3 5 1 4 10 -1 8 -5 18 -8 22 -4 3
-5 -1 -4 -10z"/>
<path d="M11079 4268 c-5 -18 -6 -38 -1 -34 7 8 12 36 6 36 -2 0 -4 -1 -5 -2z"/>
<path d="M11036 4247 c3 -10 9 -15 12 -12 3 3 0 11 -7 18 -10 9 -11 8 -5 -6z"/>
<path d="M11076 4193 c-6 -14 -5 -15 5 -6 7 7 10 15 7 18 -3 3 -9 -2 -12 -12z"/>
<path d="M10975 4160 c-3 -5 -1 -10 4 -10 6 0 11 5 11 10 0 6 -2 10 -4 10 -3
0 -8 -4 -11 -10z"/>
<path d="M10993 4115 c0 -8 4 -12 9 -9 5 3 6 10 3 15 -9 13 -12 11 -12 -6z"/>
<path d="M11013 4031 c0 -11 5 -18 9 -15 4 3 5 11 1 19 -7 21 -12 19 -10 -4z"/>
<path d="M11035 3961 c-3 -5 -2 -12 3 -15 5 -3 9 1 9 9 0 17 -3 19 -12 6z"/>
<path d="M10953 3885 c0 -8 4 -12 9 -9 5 3 6 10 3 15 -9 13 -12 11 -12 -6z"/>
<path d="M10913 3845 c0 -8 4 -15 9 -15 4 0 8 4 8 9 0 6 -4 12 -8 15 -5 3 -9
-1 -9 -9z"/>
<path d="M10866 3779 c4 -8 30 -6 38 2 3 3 -5 5 -19 5 -13 0 -22 -3 -19 -7z"/>
<path d="M10926 3782 c-3 -5 1 -9 9 -9 8 0 12 4 9 9 -3 4 -7 8 -9 8 -2 0 -6
-4 -9 -8z"/>
<path d="M10907 3719 c7 -7 15 -10 18 -7 3 3 -2 9 -12 12 -14 6 -15 5 -6 -5z"/>
<path d="M10895 3681 c-3 -5 -2 -12 3 -15 5 -3 9 1 9 9 0 17 -3 19 -12 6z"/>
<path d="M313 3645 c0 -8 4 -12 9 -9 5 3 6 10 3 15 -9 13 -12 11 -12 -6z"/>
<path d="M330 3626 c0 -2 7 -7 16 -10 8 -3 12 -2 9 4 -6 10 -25 14 -25 6z"/>
<path d="M10850 3579 c0 -5 5 -7 10 -4 6 3 10 8 10 11 0 2 -4 4 -10 4 -5 0
-10 -5 -10 -11z"/>
<path d="M315 3561 c-3 -5 -2 -12 3 -15 5 -3 9 1 9 9 0 17 -3 19 -12 6z"/>
<path d="M10793 3545 c0 -8 4 -12 9 -9 5 3 6 10 3 15 -9 13 -12 11 -12 -6z"/>
<path d="M10750 3466 c0 -2 7 -7 16 -10 8 -3 12 -2 9 4 -6 10 -25 14 -25 6z"/>
<path d="M10790 3465 c0 -7 30 -13 34 -7 3 4 -4 9 -15 9 -10 1 -19 0 -19 -2z"/>
<path d="M415 3420 c3 -5 8 -10 11 -10 2 0 4 5 4 10 0 6 -5 10 -11 10 -5 0 -7
-4 -4 -10z"/>
<path d="M10710 3366 c0 -2 7 -7 16 -10 8 -3 12 -2 9 4 -6 10 -25 14 -25 6z"/>
<path d="M10866 3342 c-3 -5 1 -9 9 -9 8 0 12 4 9 9 -3 4 -7 8 -9 8 -2 0 -6
-4 -9 -8z"/>
<path d="M10734 3256 c1 -8 5 -18 8 -22 4 -3 5 1 4 10 -1 8 -5 18 -8 22 -4 3
-5 -1 -4 -10z"/>
<path d="M555 3120 c-3 -5 -1 -10 4 -10 6 0 11 5 11 10 0 6 -2 10 -4 10 -3 0
-8 -4 -11 -10z"/>
<path d="M10585 3060 c-3 -6 1 -7 9 -4 18 7 21 14 7 14 -6 0 -13 -4 -16 -10z"/>
<path d="M10654 3059 c-4 -7 -3 -9 4 -5 6 3 15 -2 21 -11 6 -10 11 -13 11 -7
0 20 -27 37 -36 23z"/>
<path d="M606 2942 c-3 -5 1 -9 9 -9 8 0 12 4 9 9 -3 4 -7 8 -9 8 -2 0 -6 -4
-9 -8z"/>
<path d="M10499 2938 c-5 -18 -6 -38 -1 -34 7 8 12 36 6 36 -2 0 -4 -1 -5 -2z"/>
<path d="M10554 2920 c0 -13 4 -16 10 -10 7 7 7 13 0 20 -6 6 -10 3 -10 -10z"/>
<path d="M656 2898 c3 -5 10 -6 15 -3 13 9 11 12 -6 12 -8 0 -12 -4 -9 -9z"/>
<path d="M10500 2886 c0 -2 8 -10 18 -17 15 -13 16 -12 3 4 -13 16 -21 21 -21
13z"/>
<path d="M706 2842 c-3 -5 1 -9 9 -9 8 0 12 4 9 9 -3 4 -7 8 -9 8 -2 0 -6 -4
-9 -8z"/>
<path d="M10431 2827 c-13 -21 -12 -21 5 -5 10 10 16 20 13 22 -3 3 -11 -5
-18 -17z"/>
<path d="M714 2800 c0 -13 4 -16 10 -10 7 7 7 13 0 20 -6 6 -10 3 -10 -10z"/>
<path d="M793 2675 c0 -8 4 -12 9 -9 5 3 6 10 3 15 -9 13 -12 11 -12 -6z"/>
<path d="M10410 2660 c0 -5 5 -10 11 -10 5 0 7 5 4 10 -3 6 -8 10 -11 10 -2 0
-4 -4 -4 -10z"/>
<path d="M10435 2600 c3 -5 8 -10 11 -10 2 0 4 5 4 10 0 6 -5 10 -11 10 -5 0
-7 -4 -4 -10z"/>
<path d="M10370 2580 c0 -5 5 -10 11 -10 5 0 7 5 4 10 -3 6 -8 10 -11 10 -2 0
-4 -4 -4 -10z"/>
<path d="M870 2540 c0 -5 5 -10 11 -10 5 0 7 5 4 10 -3 6 -8 10 -11 10 -2 0
-4 -4 -4 -10z"/>
<path d="M10326 2538 c3 -5 10 -6 15 -3 13 9 11 12 -6 12 -8 0 -12 -4 -9 -9z"/>
<path d="M10275 2521 c-3 -5 -2 -12 3 -15 5 -3 9 1 9 9 0 17 -3 19 -12 6z"/>
<path d="M890 2499 c0 -5 5 -7 10 -4 6 3 10 8 10 11 0 2 -4 4 -10 4 -5 0 -10
-5 -10 -11z"/>
<path d="M10193 2393 c0 -9 4 -10 14 -2 7 6 13 12 13 14 0 1 -6 2 -13 2 -8 0
-14 -6 -14 -14z"/>
<path d="M10275 2401 c-3 -5 -2 -12 3 -15 5 -3 9 1 9 9 0 17 -3 19 -12 6z"/>
<path d="M10105 2320 c-3 -6 1 -7 9 -4 18 7 21 14 7 14 -6 0 -13 -4 -16 -10z"/>
<path d="M10276 2313 c-6 -14 -5 -15 5 -6 7 7 10 15 7 18 -3 3 -9 -2 -12 -12z"/>
<path d="M990 2305 c0 -7 30 -13 34 -7 3 4 -4 9 -15 9 -10 1 -19 0 -19 -2z"/>
<path d="M10180 2280 c-9 -6 -10 -10 -3 -10 6 0 15 5 18 10 8 12 4 12 -15 0z"/>
<path d="M10230 2280 c0 -5 5 -10 10 -10 6 0 10 5 10 10 0 6 -4 10 -10 10 -5
0 -10 -4 -10 -10z"/>
<path d="M10126 2262 c-3 -5 1 -9 9 -9 8 0 12 4 9 9 -3 4 -7 8 -9 8 -2 0 -6
-4 -9 -8z"/>
<path d="M1095 2220 c3 -5 8 -10 11 -10 2 0 4 5 4 10 0 6 -5 10 -11 10 -5 0
-7 -4 -4 -10z"/>
<path d="M10067 2219 c7 -7 15 -10 18 -7 3 3 -2 9 -12 12 -14 6 -15 5 -6 -5z"/>
<path d="M10010 2177 c0 -2 6 -10 14 -16 11 -9 16 -9 22 1 4 7 4 10 -1 6 -4
-4 -14 -3 -22 3 -7 6 -13 9 -13 6z"/>
<path d="M9990 2160 c0 -5 5 -10 11 -10 5 0 7 5 4 10 -3 6 -8 10 -11 10 -2 0
-4 -4 -4 -10z"/>
<path d="M1126 2138 c3 -5 10 -6 15 -3 13 9 11 12 -6 12 -8 0 -12 -4 -9 -9z"/>
<path d="M10116 2113 c-6 -14 -5 -15 5 -6 7 7 10 15 7 18 -3 3 -9 -2 -12 -12z"/>
<path d="M1170 2099 c0 -5 5 -7 10 -4 6 3 10 8 10 11 0 2 -4 4 -10 4 -5 0 -10
-5 -10 -11z"/>
<path d="M10010 2099 c0 -5 5 -7 10 -4 6 3 10 8 10 11 0 2 -4 4 -10 4 -5 0
-10 -5 -10 -11z"/>
<path d="M9956 2073 c-6 -14 -5 -15 5 -6 7 7 10 15 7 18 -3 3 -9 -2 -12 -12z"/>
<path d="M1196 2013 c-6 -14 -5 -15 5 -6 7 7 10 15 7 18 -3 3 -9 -2 -12 -12z"/>
<path d="M9866 1999 c4 -8 30 -6 38 2 3 3 -5 5 -19 5 -13 0 -22 -3 -19 -7z"/>
<path d="M1309 1923 c-13 -16 -12 -17 4 -4 9 7 17 15 17 17 0 8 -8 3 -21 -13z"/>
<path d="M9799 1938 c-6 -20 -6 -39 0 -42 4 -3 7 6 7 20 0 20 -4 32 -7 22z"/>
<path d="M9915 1920 c-3 -5 -1 -10 4 -10 6 0 11 5 11 10 0 6 -2 10 -4 10 -3 0
-8 -4 -11 -10z"/>
<path d="M9756 1858 c3 -5 10 -6 15 -3 13 9 11 12 -6 12 -8 0 -12 -4 -9 -9z"/>
<path d="M9850 1865 c0 -5 5 -17 10 -25 5 -8 10 -10 10 -5 0 6 -5 17 -10 25
-5 8 -10 11 -10 5z"/>
<path d="M1410 1819 c0 -5 5 -7 10 -4 6 3 10 8 10 11 0 2 -4 4 -10 4 -5 0 -10
-5 -10 -11z"/>
<path d="M9710 1779 c0 -5 5 -7 10 -4 6 3 10 8 10 11 0 2 -4 4 -10 4 -5 0 -10
-5 -10 -11z"/>
<path d="M9646 1765 c-18 -14 -18 -14 1 -12 11 0 20 7 20 14 0 7 -1 13 -1 13
-1 0 -9 -7 -20 -15z"/>
<path d="M9835 1771 c-3 -5 -2 -12 3 -15 5 -3 9 1 9 9 0 17 -3 19 -12 6z"/>
<path d="M9730 1740 c0 -5 5 -10 11 -10 5 0 7 5 4 10 -3 6 -8 10 -11 10 -2 0
-4 -4 -4 -10z"/>
<path d="M9696 1715 c-9 -26 -7 -32 5 -12 6 10 9 21 6 23 -2 3 -7 -2 -11 -11z"/>
<path d="M9595 1700 c-3 -5 -1 -10 4 -10 6 0 11 5 11 10 0 6 -2 10 -4 10 -3 0
-8 -4 -11 -10z"/>
<path d="M1550 1696 c0 -2 8 -10 18 -17 15 -13 16 -12 3 4 -13 16 -21 21 -21
13z"/>
<path d="M9657 1675 c-4 -8 -3 -16 1 -19 4 -3 9 4 9 15 2 23 -3 25 -10 4z"/>
<path d="M9550 1658 c0 -4 4 -8 9 -8 6 0 12 4 15 8 3 5 -1 9 -9 9 -8 0 -15 -4
-15 -9z"/>
<path d="M1614 1596 c1 -8 5 -18 8 -22 4 -3 5 1 4 10 -1 8 -5 18 -8 22 -4 3
-5 -1 -4 -10z"/>
<path d="M9445 1559 c-3 -4 2 -6 10 -5 21 3 28 13 10 13 -9 0 -18 -4 -20 -8z"/>
<path d="M9513 1553 c0 -9 4 -10 14 -2 7 6 13 12 13 14 0 1 -6 2 -13 2 -8 0
-14 -6 -14 -14z"/>
<path d="M9433 1527 c0 -8 6 -14 14 -14 9 0 10 4 2 14 -6 7 -12 13 -14 13 -1
0 -2 -6 -2 -13z"/>
<path d="M1735 1520 c3 -5 8 -10 11 -10 2 0 4 5 4 10 0 6 -5 10 -11 10 -5 0
-7 -4 -4 -10z"/>
<path d="M9507 1479 c7 -7 15 -10 18 -7 3 3 -2 9 -12 12 -14 6 -15 5 -6 -5z"/>
<path d="M9359 1478 c-5 -18 -6 -38 -1 -34 7 8 12 36 6 36 -2 0 -4 -1 -5 -2z"/>
<path d="M9390 1459 c0 -5 5 -7 10 -4 6 3 10 8 10 11 0 2 -4 4 -10 4 -5 0 -10
-5 -10 -11z"/>
<path d="M1786 1442 c-3 -5 1 -9 9 -9 8 0 12 4 9 9 -3 4 -7 8 -9 8 -2 0 -6 -4
-9 -8z"/>
<path d="M9410 1420 c0 -5 5 -10 11 -10 5 0 7 5 4 10 -3 6 -8 10 -11 10 -2 0
-4 -4 -4 -10z"/>
<path d="M9310 1400 c0 -5 5 -10 11 -10 5 0 7 5 4 10 -3 6 -8 10 -11 10 -2 0
-4 -4 -4 -10z"/>
<path d="M9275 1380 c3 -5 8 -10 11 -10 2 0 4 5 4 10 0 6 -5 10 -11 10 -5 0
-7 -4 -4 -10z"/>
<path d="M9253 1365 c0 -8 3 -13 5 -10 3 3 12 -1 21 -7 10 -8 9 -4 -3 10 -23
26 -23 26 -23 7z"/>
<path d="M9305 1360 c-3 -6 1 -7 9 -4 18 7 21 14 7 14 -6 0 -13 -4 -16 -10z"/>
<path d="M9214 1318 c-4 -7 -4 -10 1 -6 4 4 15 2 24 -5 14 -11 14 -10 2 6 -16
20 -18 21 -27 5z"/>
<path d="M9256 1318 c3 -5 10 -6 15 -3 13 9 11 12 -6 12 -8 0 -12 -4 -9 -9z"/>
<path d="M9346 1318 c3 -5 10 -6 15 -3 13 9 11 12 -6 12 -8 0 -12 -4 -9 -9z"/>
<path d="M1977 1275 c-4 -8 -3 -16 1 -19 4 -3 9 4 9 15 2 23 -3 25 -10 4z"/>
<path d="M9150 1258 c0 -4 4 -8 9 -8 6 0 12 4 15 8 3 5 -1 9 -9 9 -8 0 -15 -4
-15 -9z"/>
<path d="M2055 1219 c-3 -4 2 -6 10 -5 21 3 28 13 10 13 -9 0 -18 -4 -20 -8z"/>
<path d="M9064 1198 c-12 -14 -13 -18 -3 -10 9 6 18 10 21 7 2 -3 5 2 5 10 0
19 0 19 -23 -7z"/>
<path d="M9107 1199 c7 -7 15 -10 18 -7 3 3 -2 9 -12 12 -14 6 -15 5 -6 -5z"/>
<path d="M2050 1186 c0 -2 7 -7 16 -10 8 -3 12 -2 9 4 -6 10 -25 14 -25 6z"/>
<path d="M2110 1166 c0 -2 7 -7 16 -10 8 -3 12 -2 9 4 -6 10 -25 14 -25 6z"/>
<path d="M8996 1142 c-2 -4 -1 -14 4 -22 7 -11 9 -9 7 8 -1 24 -3 26 -11 14z"/>
<path d="M9050 1139 c0 -5 5 -7 10 -4 6 3 10 8 10 11 0 2 -4 4 -10 4 -5 0 -10
-5 -10 -11z"/>
<path d="M2073 1115 c0 -8 4 -12 9 -9 5 3 6 10 3 15 -9 13 -12 11 -12 -6z"/>
<path d="M8921 1096 c-9 -11 -9 -16 1 -22 7 -4 10 -4 6 1 -4 4 -3 14 3 22 6 7
9 13 6 13 -2 0 -10 -6 -16 -14z"/>
<path d="M8993 1087 c0 -8 6 -14 14 -14 9 0 10 4 2 14 -6 7 -12 13 -14 13 -1
0 -2 -6 -2 -13z"/>
<path d="M8960 1080 c-9 -6 -10 -10 -3 -10 6 0 15 5 18 10 8 12 4 12 -15 0z"/>
<path d="M2216 1058 c3 -5 10 -6 15 -3 13 9 11 12 -6 12 -8 0 -12 -4 -9 -9z"/>
<path d="M2295 1020 c3 -5 8 -10 11 -10 2 0 4 5 4 10 0 6 -5 10 -11 10 -5 0
-7 -4 -4 -10z"/>
<path d="M8860 1026 c0 -2 8 -10 18 -17 15 -13 16 -12 3 4 -13 16 -21 21 -21
13z"/>
<path d="M8770 1010 c-9 -6 -10 -10 -3 -10 6 0 15 5 18 10 8 12 4 12 -15 0z"/>
<path d="M8905 1000 c-3 -6 1 -7 9 -4 18 7 21 14 7 14 -6 0 -13 -4 -16 -10z"/>
<path d="M2373 935 c0 -8 4 -12 9 -9 5 3 6 10 3 15 -9 13 -12 11 -12 -6z"/>
<path d="M8747 939 c7 -7 15 -10 18 -7 3 3 -2 9 -12 12 -14 6 -15 5 -6 -5z"/>
<path d="M8790 936 c0 -2 8 -10 18 -17 15 -13 16 -12 3 4 -13 16 -21 21 -21
13z"/>
<path d="M8773 905 c0 -8 4 -12 9 -9 5 3 6 10 3 15 -9 13 -12 11 -12 -6z"/>
<path d="M8613 885 c0 -8 4 -15 9 -15 4 0 8 4 8 9 0 6 -4 12 -8 15 -5 3 -9 -1
-9 -9z"/>
<path d="M2593 845 c0 -8 4 -15 9 -15 4 0 8 4 8 9 0 6 -4 12 -8 15 -5 3 -9 -1
-9 -9z"/>
<path d="M2626 842 c-3 -5 1 -9 9 -9 8 0 12 4 9 9 -3 4 -7 8 -9 8 -2 0 -6 -4
-9 -8z"/>
<path d="M2646 798 c3 -5 10 -6 15 -3 13 9 11 12 -6 12 -8 0 -12 -4 -9 -9z"/>
<path d="M2679 793 c-13 -16 -12 -17 4 -4 16 13 21 21 13 21 -2 0 -10 -8 -17
-17z"/>
<path d="M8396 741 c-3 -5 2 -15 12 -22 15 -12 16 -12 5 2 -7 9 -10 19 -6 22
3 4 4 7 0 7 -3 0 -8 -4 -11 -9z"/>
<path d="M8515 740 c3 -5 8 -10 11 -10 2 0 4 5 4 10 0 6 -5 10 -11 10 -5 0 -7
-4 -4 -10z"/>
<path d="M8595 720 c-3 -5 -1 -10 4 -10 6 0 11 5 11 10 0 6 -2 10 -4 10 -3 0
-8 -4 -11 -10z"/>
<path d="M2840 700 c-9 -6 -10 -10 -3 -10 6 0 15 5 18 10 8 12 4 12 -15 0z"/>
<path d="M8296 687 c3 -10 9 -15 12 -12 3 3 0 11 -7 18 -10 9 -11 8 -5 -6z"/>
<path d="M2876 678 c3 -5 10 -6 15 -3 13 9 11 12 -6 12 -8 0 -12 -4 -9 -9z"/>
<path d="M8259 673 c-12 -16 -12 -17 2 -6 9 7 20 9 24 5 5 -4 5 -1 1 6 -9 16
-11 15 -27 -5z"/>
<path d="M2870 646 c0 -2 7 -7 16 -10 8 -3 12 -2 9 4 -6 10 -25 14 -25 6z"/>
<path d="M8266 638 c3 -4 9 -8 15 -8 5 0 9 4 9 8 0 5 -7 9 -15 9 -8 0 -12 -4
-9 -9z"/>
<path d="M8330 640 c0 -5 5 -10 11 -10 5 0 7 5 4 10 -3 6 -8 10 -11 10 -2 0
-4 -4 -4 -10z"/>
<path d="M8200 605 c11 -12 17 -25 13 -30 -5 -4 -2 -5 5 -1 11 7 10 11 -2 25
-9 10 -14 20 -11 23 3 2 -2 5 -10 5 -12 0 -11 -5 5 -22z"/>
<path d="M2870 600 c0 -5 5 -10 11 -10 5 0 7 5 4 10 -3 6 -8 10 -11 10 -2 0
-4 -4 -4 -10z"/>
<path d="M2956 602 c-3 -5 1 -9 9 -9 8 0 12 4 9 9 -3 4 -7 8 -9 8 -2 0 -6 -4
-9 -8z"/>
<path d="M8117 592 c-15 -16 -15 -19 -2 -19 8 0 13 3 10 5 -3 3 0 11 6 19 17
20 5 16 -14 -5z"/>
<path d="M8035 569 c-4 -6 -5 -12 -2 -15 2 -3 7 2 10 11 7 17 1 20 -8 4z"/>
<path d="M8170 545 c0 -7 30 -13 34 -7 3 4 -4 9 -15 9 -10 1 -19 0 -19 -2z"/>
<path d="M3069 523 c-13 -16 -12 -17 4 -4 16 13 21 21 13 21 -2 0 -10 -8 -17
-17z"/>
<path d="M3093 489 c-2 -23 3 -25 10 -4 4 8 3 16 -1 19 -4 3 -9 -4 -9 -15z"/>
<path d="M3293 471 c0 -11 5 -18 9 -15 4 3 5 11 1 19 -7 21 -12 19 -10 -4z"/>
<path d="M7856 482 c-3 -5 1 -9 9 -9 8 0 12 4 9 9 -3 4 -7 8 -9 8 -2 0 -6 -4
-9 -8z"/>
<path d="M7975 471 c-3 -5 -2 -12 3 -15 5 -3 9 1 9 9 0 17 -3 19 -12 6z"/>
<path d="M3215 460 c3 -5 8 -10 11 -10 2 0 4 5 4 10 0 6 -5 10 -11 10 -5 0 -7
-4 -4 -10z"/>
<path d="M8006 462 c-3 -5 1 -9 9 -9 8 0 12 4 9 9 -3 4 -7 8 -9 8 -2 0 -6 -4
-9 -8z"/>
<path d="M7796 447 c3 -10 9 -15 12 -12 3 3 0 11 -7 18 -10 9 -11 8 -5 -6z"/>
<path d="M3335 420 c3 -5 8 -10 11 -10 2 0 4 5 4 10 0 6 -5 10 -11 10 -5 0 -7
-4 -4 -10z"/>
<path d="M7886 422 c-3 -5 1 -9 9 -9 8 0 12 4 9 9 -3 4 -7 8 -9 8 -2 0 -6 -4
-9 -8z"/>
<path d="M7934 422 c4 -3 14 -7 22 -8 9 -1 13 0 10 4 -4 3 -14 7 -22 8 -9 1
-13 0 -10 -4z"/>
<path d="M3415 400 c3 -5 8 -10 11 -10 2 0 4 5 4 10 0 6 -5 10 -11 10 -5 0 -7
-4 -4 -10z"/>
<path d="M3450 345 c0 -7 30 -13 34 -7 3 4 -4 9 -15 9 -10 1 -19 0 -19 -2z"/>
<path d="M3671 327 c-8 -10 -7 -14 2 -14 8 0 14 6 14 14 0 7 -1 13 -2 13 -2 0
-8 -6 -14 -13z"/>
<path d="M7545 320 c10 -11 20 -20 23 -20 3 0 -3 9 -13 20 -10 11 -20 20 -23
20 -3 0 3 -9 13 -20z"/>
<path d="M3590 326 c0 -2 7 -7 16 -10 8 -3 12 -2 9 4 -6 10 -25 14 -25 6z"/>
<path d="M7486 322 c-3 -5 1 -9 9 -9 8 0 12 4 9 9 -3 4 -7 8 -9 8 -2 0 -6 -4
-9 -8z"/>
<path d="M3747 299 c7 -7 15 -10 18 -7 3 3 -2 9 -12 12 -14 6 -15 5 -6 -5z"/>
<path d="M7656 302 c-3 -5 1 -9 9 -9 8 0 12 4 9 9 -3 4 -7 8 -9 8 -2 0 -6 -4
-9 -8z"/>
<path d="M7320 285 c0 -2 6 -8 13 -14 10 -8 14 -7 14 2 0 8 -6 14 -14 14 -7 0
-13 -1 -13 -2z"/>
<path d="M7580 286 c0 -2 8 -10 18 -17 15 -13 16 -12 3 4 -13 16 -21 21 -21
13z"/>
<path d="M3835 261 c-3 -5 -2 -12 3 -15 5 -3 9 1 9 9 0 17 -3 19 -12 6z"/>
<path d="M7495 260 c3 -5 8 -10 11 -10 2 0 4 5 4 10 0 6 -5 10 -11 10 -5 0 -7
-4 -4 -10z"/>
<path d="M7313 235 c0 -8 4 -12 9 -9 5 3 6 10 3 15 -9 13 -12 11 -12 -6z"/>
<path d="M7344 242 c4 -3 14 -7 22 -8 9 -1 13 0 10 4 -4 3 -14 7 -22 8 -9 1
-13 0 -10 -4z"/>
<path d="M7455 240 c-3 -5 -1 -10 4 -10 6 0 11 5 11 10 0 6 -2 10 -4 10 -3 0
-8 -4 -11 -10z"/>
<path d="M3790 219 c0 -5 5 -7 10 -4 6 3 10 8 10 11 0 2 -4 4 -10 4 -5 0 -10
-5 -10 -11z"/>
<path d="M7355 209 c-4 -6 -5 -12 -2 -15 2 -3 7 2 10 11 7 17 1 20 -8 4z"/>
<path d="M7099 193 c-13 -17 -13 -17 6 -3 11 8 22 16 24 17 2 2 0 3 -6 3 -6 0
-17 -8 -24 -17z"/>
<path d="M3936 182 c-3 -5 1 -9 9 -9 8 0 12 4 9 9 -3 4 -7 8 -9 8 -2 0 -6 -4
-9 -8z"/>
<path d="M3970 179 c0 -5 5 -7 10 -4 6 3 10 8 10 11 0 2 -4 4 -10 4 -5 0 -10
-5 -10 -11z"/>
<path d="M7250 180 c0 -5 5 -10 11 -10 5 0 7 5 4 10 -3 6 -8 10 -11 10 -2 0
-4 -4 -4 -10z"/>
<path d="M4070 158 c0 -4 4 -8 9 -8 6 0 12 4 15 8 3 5 -1 9 -9 9 -8 0 -15 -4
-15 -9z"/>
<path d="M4152 164 c3 -3 12 -6 20 -8 7 -1 20 -5 28 -10 12 -7 13 -6 3 4 -7 8
-23 15 -35 17 -12 2 -19 1 -16 -3z"/>
<path d="M6954 154 c1 -7 6 -17 10 -21 4 -4 6 -1 4 7 -2 9 3 14 12 12 8 -2 11
0 7 4 -13 14 -35 12 -33 -2z"/>
<path d="M7106 158 c3 -5 10 -6 15 -3 13 9 11 12 -6 12 -8 0 -12 -4 -9 -9z"/>
<path d="M7035 151 c-3 -5 -2 -12 3 -15 5 -3 9 1 9 9 0 17 -3 19 -12 6z"/>
<path d="M3935 121 c-3 -5 -2 -12 3 -15 5 -3 9 1 9 9 0 17 -3 19 -12 6z"/>
<path d="M4010 126 c0 -2 7 -7 16 -10 8 -3 12 -2 9 4 -6 10 -25 14 -25 6z"/>
<path d="M4176 118 c3 -5 10 -6 15 -3 13 9 11 12 -6 12 -8 0 -12 -4 -9 -9z"/>
<path d="M6755 121 c-3 -5 -2 -12 3 -15 5 -3 9 1 9 9 0 17 -3 19 -12 6z"/>
<path d="M4315 111 c-3 -5 -2 -12 3 -15 5 -3 9 1 9 9 0 17 -3 19 -12 6z"/>
<path d="M6715 111 c-3 -5 -2 -12 3 -15 5 -3 9 1 9 9 0 17 -3 19 -12 6z"/>
<path d="M6785 100 c-3 -6 1 -7 9 -4 18 7 21 14 7 14 -6 0 -13 -4 -16 -10z"/>
<path d="M6835 91 c-3 -5 -2 -12 3 -15 5 -3 9 1 9 9 0 17 -3 19 -12 6z"/>
<path d="M6476 67 c3 -10 9 -15 12 -12 3 3 0 11 -7 18 -10 9 -11 8 -5 -6z"/>
<path d="M4626 58 c3 -5 10 -6 15 -3 13 9 11 12 -6 12 -8 0 -12 -4 -9 -9z"/>
<path d="M4666 58 c7 -10 24 -10 24 0 0 5 -7 9 -15 9 -8 0 -12 -4 -9 -9z"/>
<path d="M4740 60 c-9 -6 -10 -10 -3 -10 6 0 15 5 18 10 8 12 4 12 -15 0z"/>
<path d="M6625 59 c-3 -4 2 -6 10 -5 21 3 28 13 10 13 -9 0 -18 -4 -20 -8z"/>
<path d="M6415 49 c-4 -6 -5 -12 -2 -15 2 -3 7 2 10 11 7 17 1 20 -8 4z"/>
<path d="M7156 47 c3 -10 9 -15 12 -12 3 3 0 11 -7 18 -10 9 -11 8 -5 -6z"/>
<path d="M6150 36 c0 -2 8 -10 18 -17 15 -13 16 -12 3 4 -13 16 -21 21 -21 13z"/>
<path d="M6655 31 c-3 -5 -2 -12 3 -15 5 -3 9 1 9 9 0 17 -3 19 -12 6z"/>
<path d="M4559 13 c-13 -17 -13 -17 6 -3 11 8 22 16 24 17 2 2 0 3 -6 3 -6 0
-17 -8 -24 -17z"/>
</g>
</svg>
